<svg xmlns="http://www.w3.org/2000/svg" height="24" width="24"><path d="M3.275 18.025V16.8q0-.625.325-1.05.325-.425.875-.7 1.225-.575 2.388-.925 1.162-.35 2.987-.35 1.825 0 2.988.35 1.162.35 2.387.925.575.275.9.7.325.425.325 1.05v1.225Zm15.15 0v-1.2q0-.8-.275-1.475t-.75-1.175q.525.175 1.05.4.525.225 1.1.475.55.275.875.75.325.475.325 1.025v1.2ZM9.85 11.2q-1.1 0-1.862-.762-.763-.763-.763-1.863 0-1.075.763-1.85.762-.775 1.862-.775t1.863.775q.762.775.762 1.85 0 1.1-.762 1.863-.763.762-1.863.762Zm6.225-2.625q0 1.1-.763 1.863-.762.762-1.862.762h.075q.45-.525.688-1.2.237-.675.237-1.425 0-.725-.262-1.388-.263-.662-.663-1.237h-.075q1.1 0 1.862.775.763.775.763 1.85ZM3.9 17.4h11.9v-.575q0-.4-.187-.675-.188-.275-.713-.55-1.05-.575-2.237-.888-1.188-.312-2.813-.312-1.625 0-2.813.312-1.187.313-2.237.888-.525.275-.712.55-.188.275-.188.65Zm5.95-6.825q.825 0 1.413-.575.587-.575.587-1.4 0-.85-.587-1.425Q10.675 6.6 9.85 6.6q-.825 0-1.4.575t-.575 1.4q0 .825.575 1.412.575.588 1.4.588Zm0 6.825Zm0-8.825Z"/></svg>